<?xml version="1.0" encoding="UTF-8"?>
<!DOCTYPE svg PUBLIC "-//W3C//DTD SVG 1.1//EN" "http://www.w3.org/Graphics/SVG/1.1/DTD/svg11.dtd">
<!-- Creator: CorelDRAW 2020 (64 Bit) -->
<svg xmlns="http://www.w3.org/2000/svg" xml:space="preserve" width="2381px" height="1171px" version="1.1" style="shape-rendering:geometricPrecision; text-rendering:geometricPrecision; image-rendering:optimizeQuality; fill-rule:evenodd; clip-rule:evenodd"
viewBox="0 0 2386.9 1174.15"
 xmlns:xlink="http://www.w3.org/1999/xlink"
 xmlns:xodm="http://www.corel.com/coreldraw/odm/2003">
 <defs>
  <style type="text/css">
   <![CDATA[
    .str0 {stroke:#FEFEFE;stroke-width:18.36;stroke-miterlimit:4}
    .fil1 {fill:none;fill-rule:nonzero}
    .fil3 {fill:#FEFEFE}
    .fil2 {fill:#FEFEFE;fill-rule:nonzero}
    .fil0 {fill:#ED3237;fill-rule:nonzero}
   ]]>
  </style>
 </defs>
 <g id="Camada_x0020_1">
  <metadata id="CorelCorpID_0Corel-Layer"/>
  <polygon class="fil0" points="9.18,9.18 2377.72,9.18 2377.72,1164.97 9.18,1164.97 "/>
  <polygon class="fil1 str0" points="9.18,9.18 2377.72,9.18 2377.72,1164.97 9.18,1164.97 "/>
  <path class="fil2" d="M323.66 690.21l0 193.62c0,27.47 -3.67,64.58 -30.26,64.58 -26.59,0 -30.2,-37.11 -30.2,-64.58l0 -596.07c0,-27.47 3.61,-64.59 30.2,-64.59 26.59,0 30.26,37.12 30.26,64.59l0 153.83 170.47 0 0 -185.42c0,-130.45 -95.54,-178.57 -200.73,-178.57 -105.19,0 -200.73,48.12 -200.73,178.57l0 659.26c0,130.5 95.54,178.56 200.73,178.56 105.19,0 200.73,-48.06 200.73,-178.56l0 -225.22 -170.47 0 0 0z"/>
  <path class="fil3" d="M515.42 1074.79l152.39 0 26.58 -266.47 80.99 0 19.32 266.47 177.74 0 -102.75 -977.93 -226.15 0 -128.12 977.93 0 0zm193.46 -406.58l27.81 -401.05 4.83 0 22.99 401.05 -55.63 0 0 0z"/>
  <path class="fil3" d="M1164.22 236.9l20.59 0c27.81,0 39.86,15.13 39.86,61.85l0 144.24c0,46.72 -12.05,61.79 -39.86,61.79l-20.59 0 0 -267.88zm0 837.89l0 -457.43c60.45,0 60.45,48.12 60.45,108.51l0 222.54c0,67.27 10.88,98.92 22.97,126.38l172.92 0c-9.66,-38.46 -25.42,-78.32 -25.42,-173.1l0 -193.68c0,-111.24 -24.15,-157.91 -131.72,-164.77l0 -2.74c102.74,-6.87 131.72,-86.57 131.72,-159.36l0 -86.52c0,-149.7 -95.48,-197.76 -200.73,-197.76l-200.67 0 0 977.93 170.48 0 0 0z"/>
  <path class="fil3" d="M1416.49 1074.79l152.27 0 26.58 -266.47 81.05 0 19.32 266.47 177.75 0 -102.75 -977.93 -226.11 0 -128.11 977.93 0 0zm193.46 -406.58l27.75 -401.05 4.83 0 22.99 401.05 -55.57 0 0 0z"/>
  <path class="fil2" d="M2293.82 445.67l0 -189.5c0,-130.45 -95.53,-178.57 -200.72,-178.57 -105.2,0 -200.79,48.12 -200.79,178.57l0 122.24c0,225.22 233.42,190.89 237.03,505.42 0,27.47 -3.61,64.58 -30.19,64.58 -26.65,0 -30.25,-37.11 -30.25,-64.58l0 -193.62 -170.49 0 0 225.22c0,130.5 95.54,178.56 200.74,178.56 105.13,0 200.67,-48.06 200.67,-178.56l0 -85.12c0,-359.92 -232.14,-269.27 -236.98,-542.55 0,-27.47 3.61,-64.59 30.26,-64.59 26.59,0 30.19,37.12 30.19,64.59l0 157.91 170.53 0 0 0z"/>
 </g>
</svg>
